#!OML:ASF Y:\EmotionMaleHayes\Project 1\Capture day 1\Session 1\Male1.ASF
:FULLY-SPECIFIED
:DEGREES
148
root -30.1315 17.0609 0.84044 51.6789 86.1652 51.7442
lowerback 4.67709 1.35293 -5.84618
upperback -0.54566 1.45965 -0.591555
thorax -3.32286 0.83245 2.55567
lowerneck -20.2515 3.48639 5.18207
upperneck 25.5695 4.24527 -2.50179
head 11.9295 2.1914 -1.09774
rclavicle 1.635e-014 7.35503e-015
rhumerus -35.197 8.53506 -92.1839
rradius 30.715
rwrist 4.46092
rhand -10.07 -31.3675
rfingers 7.12502
rthumb 15.9162 -60.7335
lclavicle 1.635e-014 7.35503e-015
lhumerus -31.8573 -8.10432 92.0104
lradius 21.7993
lwrist -18.962
lhand -10.0907 -27.5245
lfingers 7.12502
lthumb 15.8963 1.84308
rfemur 8.77991 -3.14653 9.83703
rtibia 2.43499
rfoot -14.7271 -3.16421
rtoes 6.542
lfemur 11.5707 -2.66872 -18.3397
ltibia -3.0659
lfoot -10.1444 11.6425
ltoes -18.7257
149
root -30.1319 17.0594 0.839951 51.428 86.1594 51.4788
lowerback 4.59797 1.35556 -5.81084
upperback -0.510566 1.4717 -0.614547
thorax -3.24124 0.834929 2.51334
lowerneck -20.311 3.50571 5.2074
upperneck 25.5333 4.24456 -2.46165
head 11.927 2.19688 -1.08646
rclavicle 9.95321e-015 -9.74045e-015
rhumerus -35.0439 8.2941 -92.119
rradius 30.4782
rwrist 4.80749
rhand -10.2569 -31.2323
rfingers 7.12502
rthumb 15.7362 -60.6126
lclavicle 9.95321e-015 -9.74045e-015
lhumerus -31.7706 -8.16074 91.9763
lradius 21.7852
lwrist -18.9769
lhand -9.95083 -27.3374
lfingers 7.12502
lthumb 16.031 2.0194
rfemur 8.74104 -3.22455 9.81301
rtibia 2.47467
rfoot -14.7204 -3.03967
rtoes 6.9716
lfemur 11.6316 -3.0938 -18.4912
ltibia -3.15271
lfoot -10.2604 12.0254
ltoes -17.8407
150
root -30.1328 17.0583 0.840436 50.4662 86.1236 50.5146
lowerback 4.60296 1.36894 -5.87015
upperback -0.522815 1.48634 -0.565852
thorax -3.2611 0.844263 2.5955
lowerneck -20.6554 3.54023 4.80834
upperneck 25.9386 4.25416 -1.87138
head 12.1289 2.24102 -0.790407
rclavicle -1.64898e-014 9.14409e-015
rhumerus -34.9534 8.09418 -91.971
rradius 30.2283
rwrist 5.2053
rhand -10.4101 -30.8977
rfingers 7.12502
rthumb 15.5887 -60.2895
lclavicle -1.64898e-014 9.14409e-015
lhumerus -31.7797 -8.01118 91.9803
lradius 21.7731
lwrist -19.1082
lhand -9.489 -27.3575
lfingers 7.12502
lthumb 16.4757 1.96296
rfemur 8.68737 -3.20843 9.82171
rtibia 2.52302
rfoot -14.7526 -2.955
rtoes 7.37138
lfemur 11.6497 -3.0889 -18.4657
ltibia -3.14731
lfoot -10.3626 12.035
ltoes -17.8577
151
root -30.1336 17.0579 0.841954 50.2237 86.0678 50.257
lowerback 4.53148 1.36745 -5.98936
upperback -0.491051 1.48512 -0.524674
thorax -3.1922 0.843638 2.70694
lowerneck -20.8664 3.56464 4.64911
upperneck 26.1456 4.28772 -1.69277
head 12.2449 2.26381 -0.686575
rclavicle 1.14922e-016 1.81888e-014
rhumerus -34.8527 8.18806 -91.9083
rradius 30.1752
rwrist 5.15473
rhand -10.3608 -30.6923
rfingers 7.12502
rthumb 15.6362 -60.0804
lclavicle 1.14922e-016 1.81888e-014
lhumerus -31.711 -7.84171 91.9725
lradius 21.7473
lwrist -19.2359
lhand -9.7443 -27.4815
lfingers 7.12502
lthumb 16.2299 1.85911
rfemur 8.63338 -3.23751 9.77325
rtibia 2.56749
rfoot -14.7438 -2.8873
rtoes 7.20872
lfemur 11.6386 -2.95938 -18.4591
ltibia -3.15653
lfoot -10.3598 11.9573
ltoes -18.3656
152
root -30.1342 17.0571 0.841701 50.5927 86.0792 50.5995
lowerback 4.48945 1.36675 -5.96152
upperback -0.482526 1.48852 -0.553983
thorax -3.15838 0.843644 2.66177
lowerneck -20.9311 3.56137 4.73508
upperneck 26.1755 4.2737 -1.77139
head 12.2735 2.25501 -0.731868
rclavicle 3.07495e-015 3.97569e-015
rhumerus -34.8144 8.23261 -91.9345
rradius 30.183
rwrist 5.04044
rhand -10.2957 -30.6519
rfingers 7.12502
rthumb 15.6989 -60.0351
lclavicle 3.07495e-015 3.97569e-015
lhumerus -31.6518 -7.86762 91.9432
lradius 21.7257
lwrist -19.3041
lhand -10.3881 -27.5964
lfingers 7.12502
lthumb 15.6098 1.79371
rfemur 8.59763 -3.34995 9.72931
rtibia 2.59937
rfoot -14.6729 -2.81249
rtoes 7.31481
lfemur 11.6083 -2.88489 -18.4495
ltibia -3.18722
lfoot -10.2604 11.9241
ltoes -19.095
153
root -30.1341 17.0579 0.839914 50.6407 86.1355 50.677
lowerback 4.51526 1.3597 -5.88489
upperback -0.480167 1.48147 -0.552357
thorax -3.16772 0.838948 2.62063
lowerneck -20.9465 3.55358 4.78243
upperneck 26.2223 4.26767 -1.8359
head 12.2978 2.24907 -0.764659
rclavicle 1.97232e-016 7.95139e-016
rhumerus -34.8377 8.25875 -91.9462
rradius 30.2134
rwrist 5.01687
rhand -10.2891 -30.7602
rfingers 7.12502
rthumb 15.7052 -60.1429
lclavicle 1.97232e-016 7.95139e-016
lhumerus -31.6524 -7.85788 91.9362
lradius 21.71
lwrist -19.3225
lhand -10.4307 -27.7013
lfingers 7.12502
lthumb 15.5688 1.69201
rfemur 8.64857 -3.42687 9.75339
rtibia 2.59719
rfoot -14.6163 -2.82965
rtoes 6.77848
lfemur 11.5891 -2.71615 -18.3448
ltibia -3.13932
lfoot -10.1992 11.7131
ltoes -19.2978
154
root -30.1337 17.0591 0.839758 51.1857 86.1115 51.2924
lowerback 4.56384 1.34759 -5.96028
upperback -0.469166 1.45866 -0.53299
thorax -3.18421 0.829288 2.68375
lowerneck -20.8735 3.57244 4.7774
upperneck 26.2251 4.32262 -1.90068
head 12.2879 2.26571 -0.77999
rclavicle 1.32596e-014 -2.88238e-015
rhumerus -34.8417 8.26912 -91.8991
rradius 30.1798
rwrist 5.11927
rhand -10.1553 -30.9295
rfingers 7.12502
rthumb 15.8341 -60.302
lclavicle 1.32596e-014 -2.88238e-015
lhumerus -31.6794 -7.74391 91.9335
lradius 21.703
lwrist -19.3962
lhand -10.8119 -27.5612
lfingers 7.12502
lthumb 15.2017 1.86034
rfemur 8.74906 -3.44782 9.6888
rtibia 2.57432
rfoot -14.6495 -2.82558
rtoes 6.58099
lfemur 11.5914 -2.52738 -18.3376
ltibia -2.99373
lfoot -10.2513 11.4533
ltoes -18.8051
155
root -30.1339 17.0585 0.841354 51.9752 86.0204 52.1087
lowerback 4.57306 1.35229 -6.10083
upperback -0.475315 1.45624 -0.545004
thorax -3.19913 0.831139 2.74983
lowerneck -20.7879 3.57611 4.78151
upperneck 26.189 4.33865 -1.92601
head 12.2578 2.27084 -0.788941
rclavicle -3.73808e-015 -7.65321e-015
rhumerus -34.8492 8.25727 -91.8611
rradius 30.1229
rwrist 5.21976
rhand -10.0134 -31.0452
rfingers 7.12502
rthumb 15.9708 -60.4068
lclavicle -3.73808e-015 -7.65321e-015
lhumerus -31.7041 -7.66219 91.9257
lradius 21.6953
lwrist -19.5189
lhand -11.1858 -27.3972
lfingers 7.12502
lthumb 14.8415 2.05123
rfemur 8.79933 -3.23948 9.62385
rtibia 2.50691
rfoot -14.7204 -2.95188
rtoes 7.01431
lfemur 11.651 -2.7743 -18.5595
ltibia -3.00488
lfoot -10.3544 11.7151
ltoes -18.5908
156
root -30.1348 17.0576 0.842248 52.0567 85.9987 52.1644
lowerback 4.53706 1.36288 -6.11402
upperback -0.49784 1.47101 -0.563446
thorax -3.20352 0.839215 2.73736
lowerneck -20.7035 3.57317 4.79893
upperneck 26.171 4.33859 -1.94052
head 12.2347 2.272 -0.798581
rclavicle -1.74371e-014 3.47873e-015
rhumerus -34.8782 8.19657 -91.864
rradius 30.1043
rwrist 5.23721
rhand -10.0944 -30.9988
rfingers 7.12502
rthumb 15.8927 -60.3667
lclavicle -1.74371e-014 3.47873e-015
lhumerus -31.7159 -7.73733 91.9333
lradius 21.6811
lwrist -19.5089
lhand -11.2644 -27.4642
lfingers 7.12502
lthumb 14.7658 1.98981
rfemur 8.77256 -3.07945 9.66339
rtibia 2.47604
rfoot -14.7064 -3.13749
rtoes 7.27817
lfemur 11.6648 -2.94459 -18.6384
ltibia -3.11256
lfoot -10.334 11.9615
ltoes -18.9834
157
root -30.1355 17.058 0.841661 52.0396 86.0414 52.1516
lowerback 4.49888 1.36429 -6.08378
upperback -0.47794 1.47831 -0.5538
thorax -3.16142 0.840802 2.73099
lowerneck -20.6747 3.56874 4.81761
upperneck 26.1497 4.33667 -1.97334
head 12.2218 2.26882 -0.814931
rclavicle -1.28232e-014 3.37934e-015
rhumerus -34.8366 8.09635 -91.8244
rradius 30.0879
rwrist 5.27183
rhand -10.1267 -30.9589
rfingers 7.12502
rthumb 15.8616 -60.3292
lclavicle -1.28232e-014 3.37934e-015
lhumerus -31.6656 -7.87055 91.9671
lradius 21.6614
lwrist -19.4129
lhand -11.446 -27.5692
lfingers 7.12502
lthumb 14.5908 1.89758
rfemur 8.75796 -3.202 9.6615
rtibia 2.52495
rfoot -14.6571 -3.08833
rtoes 7.7307
lfemur 11.6978 -2.98596 -18.6033
ltibia -3.2112
lfoot -10.2601 12.0218
ltoes -19.2953
158
root -30.1337 17.0619 0.839943 51.1807 86.0428 51.3786
lowerback 4.52572 1.37958 -6.06078
upperback -0.421755 1.50067 -0.533372
thorax -3.12017 0.849367 2.73781
lowerneck -20.737 3.58407 4.86422
upperneck 26.183 4.35738 -2.03145
head 12.251 2.2743 -0.840129
rclavicle 5.79116e-015 8.94531e-016
rhumerus -34.7793 8.07774 -91.7841
rradius 30.0677
rwrist 5.3186
rhand -10.1152 -30.9978
rfingers 7.12502
rthumb 15.8727 -60.3672
lclavicle 5.79116e-015 8.94531e-016
lhumerus -31.6175 -7.82453 91.9629
lradius 21.6759
lwrist -19.4262
lhand -11.3573 -27.6887
lfingers 7.12502
lthumb 14.6762 1.77188
rfemur 8.81319 -3.34315 9.63345
rtibia 2.59625
rfoot -14.6635 -2.91244
rtoes 7.22641
lfemur 11.8545 -3.14782 -18.6381
ltibia -3.30114
lfoot -10.3274 12.189
ltoes -18.8077
159
root -30.1373 17.0593 0.841732 51.2516 86.1258 51.357
lowerback 4.46422 1.35278 -6.00808
upperback -0.452729 1.4712 -0.517264
thorax -3.11392 0.834269 2.72816
lowerneck -20.6148 3.59095 5.04035
upperneck 26.0317 4.38425 -2.29176
head 12.1797 2.26865 -0.965696
rclavicle -2.03133e-015 8.44835e-015
rhumerus -34.8121 8.16748 -91.822
rradius 30.1045
rwrist 5.22379
rhand -10.2209 -31.0364
rfingers 7.12502
rthumb 15.7709 -60.4139
lclavicle -2.03133e-015 8.44835e-015
lhumerus -31.626 -7.73859 91.9394
lradius 21.7006
lwrist -19.4801
lhand -11.057 -27.7209
lfingers 7.12502
lthumb 14.9656 1.71837
rfemur 8.70394 -3.32555 9.74681
rtibia 2.60717
rfoot -14.7006 -3.03237
rtoes 6.38394
lfemur 11.673 -3.157 -18.5262
ltibia -3.18696
lfoot -10.401 12.1089
ltoes -18.2295
160
root -30.1376 17.0576 0.842568 51.7762 86.1117 51.856
lowerback 4.43933 1.36507 -5.99317
upperback -0.476411 1.48842 -0.559818
thorax -3.12451 0.843144 2.67461
lowerneck -20.2266 3.55115 5.32954
upperneck 25.5804 4.36004 -2.73232
head 11.9438 2.22768 -1.18999
rclavicle 5.72593e-015 -3.57812e-015
rhumerus -34.8768 8.15617 -91.8791
rradius 30.1883
rwrist 5.06142
rhand -10.2982 -30.9474
rfingers 7.12502
rthumb 15.6965 -60.3308
lclavicle 5.72593e-015 -3.57812e-015
lhumerus -31.6816 -7.89607 91.9706
lradius 21.7222
lwrist -19.387
lhand -10.8863 -27.6597
lfingers 7.12502
lthumb 15.13 1.76721
rfemur 8.70483 -3.25564 9.73622
rtibia 2.55353
rfoot -14.7085 -3.12833
rtoes 6.60775
lfemur 11.5593 -2.79154 -18.4187
ltibia -3.04791
lfoot -10.3234 11.713
ltoes -18.4507
161
root -30.1366 17.0579 0.841443 52.4217 86.0428 52.543
lowerback 4.467 1.3598 -6.0846
upperback -0.467641 1.47476 -0.57171
thorax -3.13195 0.837987 2.714
lowerneck -20.1657 3.55363 5.30425
upperneck 25.5207 4.36628 -2.7105
head 11.9076 2.23094 -1.17744
rclavicle 2.47394e-015 3.08116e-015
rhumerus -34.8862 8.15589 -91.8724
rradius 30.2382
rwrist 5.07078
rhand -10.2733 -30.821
rfingers 7.12502
rthumb 15.7205 -60.2025
lclavicle 2.47394e-015 3.08116e-015
lhumerus -31.7119 -7.93068 91.9966
lradius 21.7444
lwrist -19.2939
lhand -10.3116 -27.7225
lfingers 7.12502
lthumb 15.6835 1.66188
rfemur 8.76673 -3.3264 9.5988
rtibia 2.53563
rfoot -14.6937 -3.04129
rtoes 6.95078
lfemur 11.4517 -1.98508 -18.2508
ltibia -2.75518
lfoot -10.2146 10.9123
ltoes -19.1305
